<svg width="20" height="20" viewBox="0 0 20 20" fill="none" xmlns="http://www.w3.org/2000/svg">
<path d="M2.72916 12.7464C2.02088 11.8263 1.66675 11.3662 1.66675 10C1.66675 8.63389 2.02088 8.17381 2.72916 7.25365C4.14338 5.41634 6.51518 3.33337 10.0001 3.33337C13.485 3.33337 15.8568 5.41634 17.271 7.25365C17.9793 8.17381 18.3334 8.63389 18.3334 10C18.3334 11.3662 17.9793 11.8263 17.271 12.7464C15.8568 14.5837 13.485 16.6667 10.0001 16.6667C6.51518 16.6667 4.14339 14.5837 2.72916 12.7464Z" stroke="#60A5FA" stroke-width="1.5"/>
<path d="M12.5 10C12.5 11.3807 11.3807 12.5 10 12.5C8.61929 12.5 7.5 11.3807 7.5 10C7.5 8.61929 8.61929 7.5 10 7.5C11.3807 7.5 12.5 8.61929 12.5 10Z" stroke="#60A5FA" stroke-width="1.5"/>
</svg>
